<svg xmlns="http://www.w3.org/2000/svg" viewBox="0 0 488 90" class="iconLeftSlogan"><g id="409599fb-89aa-4ddd-9c19-604f11e9ffd0" fill="#000" transform="matrix(4.357298631868611,0,0,4.357298631868611,127.58696443664917,-10.718954323777375)"><path d="M1.54 14.59q-.13-.34-.13-.94.0-.6.41-3.56.41-2.95.41-4.74Q2.23 4.93 2.17 4.2 3.23 4.26 3.5 4.7q.14.26.18.49.04.23.04.73.0.49-.45 3.73-.46 3.24-.47 4.62Q2.87 14.25 3.05 14.25q3.03.0 4.51-.42Q7.46 14.64 7.01 15.09 6.55 15.54 5.87 15.54 5.67 15.54 4.66 15.45 3.64 15.36 2.69 15.36q-.95.0-1.91.18Q.97 14.92 1.54 14.59zm9.21-4.64Q10.35 10.65 10.13 11.39 9.91 12.12 9.91 12.8 9.91 13.47 10.21 13.94 10.51 14.41 11.07 14.41 11.86 14.41 12.54 13.55 13.23 12.68 13.6 11.46 13.97 10.23 13.97 9.19 13.97 8.15 13.89 7.48 14.22 7.45 14.31 7.45q1.19.0 1.19 1.22.0.26-.34 2.16-.33 1.9-.33 3.04.0 1.14.43 2.02Q14.38 15.71 13.98 15.11q-.4-.59-.4-1.71Q13.58 13.2 13.64 12.64 13.26 13.97 12.31 14.78 11.35 15.6 10.44 15.6 9.52 15.6 8.96 14.9 8.4 14.21 8.4 12.99 8.4 11.76 8.86 10.59 9.31 9.42 10.23 8.57q.91-.86 2.05-.86.49.0 1.08.2Q12.53 8.12 11.84 8.68 11.16 9.24 10.75 9.95zM24.84 5.7 24.85 5.87Q24.85 6.4 24.45 9.35 24.05 12.29 24.05 14.27 24.05 15.15 24.14 15.64 23.8 15.67 23.77 15.67 23.14 15.67 22.83 15.38 22.53 15.09 22.53 14.44 22.53 13.79 23 10.46 23.46 7.14 23.46 5.72 23.46 4.3 23.27 3.86 23.72 3.92 24.1 4.21 24.49 4.49 24.68 4.97 25.75 4.4 27.06 4.4q1.3.0 2.05.8.75.81.75 1.98.0 1.5-1.09 2.7-1.09 1.19-2.94 1.19Q25.41 11.07 25.06 11.02L25.02 10.57Q25.96 10.57 26.66 10.29 27.36 10.01 27.72 9.55 28.43 8.65 28.43 7.45 28.43 6.58 27.88 6 27.33 5.42 26.28 5.42 25.65 5.42 24.84 5.7zm8.12 4.25Q32.55 10.65 32.33 11.39 32.12 12.12 32.12 12.8 32.12 13.47 32.42 13.94 32.72 14.41 33.28 14.41 34.06 14.41 34.75 13.55 35.43 12.68 35.8 11.46 36.18 10.23 36.18 9.19 36.18 8.15 36.09 7.48 36.43 7.45 36.51 7.45q1.19.0 1.19 1.22Q37.7 8.93 37.37 10.83 37.03 12.73 37.03 13.87q0 1.14.43 2.02Q36.58 15.71 36.18 15.11 35.78 14.52 35.78 13.4 35.78 13.2 35.84 12.64 35.46 13.97 34.51 14.78 33.56 15.6 32.64 15.6 31.72 15.6 31.16 14.9 30.6 14.21 30.6 12.99 30.6 11.76 31.06 10.59 31.51 9.42 32.43 8.57 33.35 7.71 34.48 7.71 34.97 7.71 35.56 7.91 34.73 8.12 34.05 8.68 33.36 9.24 32.96 9.95zM46.35 9.34Q46.35 9.98 46.08 11.61 45.81 13.24 45.81 13.99q0 .74.18 1.07Q46.17 15.39 46.61 15.62 46.42 15.64 46.09 15.64 45.14 15.64 44.74 15.28 44.34 14.92 44.34 14 44.34 13.48 44.62 11.91 44.9 10.33 44.9 9.59 44.9 8.67 44.34 8.67 43.44 8.67 42.48 10.25 41.52 11.83 41.52 14.06 41.52 14.94 41.61 15.43 41.24 15.46 41.17 15.46q-1.23.0-1.23-1.21Q39.94 13.97 40.24 12.1 40.53 10.22 40.53 9.11 40.53 7.99 40.29 7.06 41.12 7.38 41.45 7.97 41.78 8.57 41.78 9.33 41.78 10.09 41.61 11.1 42.07 9.52 43.06 8.44 44.04 7.35 44.9 7.35q1.45.0 1.45 1.99zm6.71-1.58Q53.06 8.34 52.84 8.57 52.61 8.79 52.18 8.79H51.17Q51.11 9.16 50.88 10.53 50.4 13.13 50.4 14.46 50.4 15.79 50.6 16.23 49.8 15.93 49.46 15.34 49.13 14.74 49.13 13.89 49.13 13.03 49.23 12.27 49.34 11.51 49.53 10.49 49.73 9.46 49.81 8.85 49.01 8.96 48.24 9.3 48.22 9.07 48.22 8.89 48.22 8.22 48.66 7.99 49.11 7.76 49.95 7.76 50.05 6.72 50.05 6.21 50.05 5.7 50.04 5.39q0-.31.0-.46Q50.68 5.03 51.03 5.5 51.38 5.96 51.38 6.78 51.38 7.2 51.31 7.8q1.22.0 1.72-.41Q53.06 7.59 53.06 7.76zm2.63 3.34Q56.15 9.52 57.11 8.44 58.07 7.35 58.91 7.35 59.75 7.35 60.1 7.86 60.45 8.37 60.45 9.25 60.45 10.12 60.18 11.7 59.91 13.29 59.91 14.01 59.91 14.73 60.09 15.06 60.27 15.39 60.7 15.62 60.52 15.64 60.19 15.64 59.29 15.64 58.86 15.27 58.44 14.9 58.44 14 58.44 13.48 58.72 11.91 59 10.33 59 9.59 59 8.67 58.35 8.67 57.97 8.67 57.51 9.07 57.05 9.46 56.62 10.14 56.2 10.82 55.91 11.87 55.62 12.91 55.62 13.92 55.62 14.94 55.71 15.43 55.37 15.46 55.33 15.46 54.67 15.46 54.36 15.18 54.04 14.9 54.04 14.3q0-.59.25-2.29Q55.03 6.8 55.03 4.1 55.03 2.88 54.87 2.46 55.68 2.76 56.01 3.33 56.34 3.91 56.34 4.91 56.34 5.61 56.06 7.85 55.79 10.09 55.69 11.1zM66.28 8.08Q65.44 8.08 64.86 9.04 64.27 10.01 64.08 11.31H64.47Q65.21 11.31 65.76 11.1 66.3 10.89 66.6 10.56 67.16 9.91 67.16 9.1 67.16 8.64 66.94 8.36 66.72 8.08 66.28 8.08zm1.97 5.67Q67.61 14.8 66.84 15.22 66.07 15.64 65.05 15.64 64.04 15.64 63.28 14.74 62.52 13.85 62.52 12.22q0-1.85 1-3.3Q64.01 8.22 64.8 7.78 65.59 7.35 66.54 7.35 68.64 7.35 68.64 9.38 68.64 10.6 67.7 11.29 66.75 11.98 65.51 11.98 64.68 11.98 64.02 11.83 64.01 11.97 64.01 12.26q0 2.48 1.47 2.48 1.38.0 2.25-1.37Q68.25 13.44 68.25 13.75zM67.97 6.3Q67.96 6.45 67.82 6.59 67.69 6.72 67.52 6.76 67.02 6.13 66.23 5.52 65.44 4.9 64.62 4.65 64.65 3.92 65.3 3.5 66.04 3.79 66.83 4.66 67.62 5.52 67.97 6.3zm4.13 4.58Q72.6 9.06 73.31 8.2 74.02 7.34 74.63 7.34 75.24 7.34 75.54 7.79 75.85 8.25 75.85 8.95 75.85 9.65 75.49 10.16 75.12 10.67 74.42 10.67 74.2 10.67 74.07 10.64 74.55 9.95 74.55 9.24 74.55 8.74 74.14 8.74 73.82 8.74 73.46 9.11 73.09 9.49 72.76 10.16 72.42 10.84 72.2 11.91 71.97 12.99 71.97 14.24 71.97 14.38 72.04 15.43 71.68 15.46 71.62 15.46q-1.23.0-1.23-1.21Q70.39 13.97 70.69 12.1 70.98 10.22 70.98 9.11 70.98 7.99 70.74 7.06 71.57 7.38 71.9 7.97 72.23 8.57 72.23 9.36 72.23 10.15 72.1 10.88zm8.25-2.8Q79.51 8.08 78.92 9.04 78.34 10.01 78.15 11.31H78.54Q79.28 11.31 79.83 11.1 80.37 10.89 80.67 10.56 81.23 9.91 81.23 9.1 81.23 8.64 81.01 8.36 80.79 8.08 80.35 8.08zm1.97 5.67Q81.68 14.8 80.91 15.22 80.14 15.64 79.12 15.64 78.11 15.64 77.35 14.74 76.59 13.85 76.59 12.22q0-1.85 1-3.3Q78.08 8.22 78.87 7.78 79.66 7.35 80.61 7.35 82.71 7.35 82.71 9.38 82.71 10.6 81.77 11.29 80.82 11.98 79.58 11.98 78.75 11.98 78.09 11.83 78.08 11.97 78.08 12.26q0 2.48 1.47 2.48Q80.93 14.74 81.8 13.37 82.32 13.44 82.32 13.75z"/></g><defs><linearGradient gradientTransform="rotate(25)" id="1c9e5e94-8daa-4b90-953d-5ec5a7b7c461" x1="0" y1="0" x2="100%" y2="0"><stop offset="0" style="stop-color:#b4373d;stop-opacity:1"/><stop offset="100%" style="stop-color:#b23acb;stop-opacity:1"/></linearGradient></defs><g id="97221fff-9f5f-45e5-b2fa-fe4d6ef25df3" transform="matrix(1.2101654687240968,0,0,1.2101654687240968,-4.368992009843154,-14.702727655207887)" stroke="none" fill="url(#1c9e5e94-8daa-4b90-953d-5ec5a7b7c461)"><defs><style>.cls-1{fill:#1d1d1b}</style></defs><path class="cls-1" d="M44 46.07V46a5.74 5.74.0 00-3.52-2.72h-.14a11.6 11.6.0 00-2.5-.47 15.62 15.62.0 01-6.43-2.38.75.75.0 00-.84 1.24 17.29 17.29.0 002 1.11c0 .1-.09.2-.12.31a6.09 6.09.0 004.15 7.51 6.46 6.46.0 001.78.25 5.9 5.9.0 004.69-2.28 10.33 10.33.0 01-.18 3 .75.75.0 00.47 1 .76.76.0 00.24.0.75.75.0 00.71-.51 11.57 11.57.0 00.23-4.1A4.94 4.94.0 0044 46.07zm-4.47-1.49a1.28 1.28.0 010 .52A1.3 1.3.0 1137 44.39a1.27 1.27.0 01.09-.17l.6.07a10.89 10.89.0 011.86.3zm.94 4.25a4.67 4.67.0 01-3.48.32 4.59 4.59.0 01-3.14-5.67v-.12a15.83 15.83.0 001.7.55v.06A2.8 2.8.0 1041 45.14a3.86 3.86.0 011.48 1.32 4.27 4.27.0 01-1.99 2.37zm27.1-5.76c0-.11-.08-.2-.12-.31a17.29 17.29.0 002-1.11.75.75.0 00-.84-1.24 15.62 15.62.0 01-6.43 2.38 11.59 11.59.0 00-2.52.47h-.12A5.74 5.74.0 0056 46v.05A4.94 4.94.0 0055.46 48a11.57 11.57.0 00.23 4.1.75.75.0 00.71.51.75.75.0 00.72-1 10.27 10.27.0 01-.19-3 5.9 5.9.0 004.69 2.28 6.46 6.46.0 001.78-.25 6.09 6.09.0 004.17-7.57zm-5.3 1.22.6-.07a1.26 1.26.0 01.09.17 1.3 1.3.0 01-.89 1.6 1.27 1.27.0 01-1.63-1.41 10.89 10.89.0 011.84-.29zm.73 4.86a4.67 4.67.0 01-3.48-.32 4.27 4.27.0 01-2-2.38A3.86 3.86.0 0159 45.14a2.84 2.84.0 00.07.37 2.8 2.8.0 002.69 2A2.8 2.8.0 0064.41 44v-.06a15.83 15.83.0 001.7-.55v.12A4.59 4.59.0 0163 49.15z"/><path class="cls-1" d="M46.33 44.89c-.16-2.25-2-3.68-5.15-3.92a11.57 11.57.0 01-4.68-1.69.75.75.0 00-.83 1.25 12.92 12.92.0 005.4 1.93c1.35.1 3.63.57 3.77 2.53a.75.75.0 00.75.7h.05a.75.75.0 00.69-.8zm12.98-2.43a12.92 12.92.0 005.4-1.93.75.75.0 00-.83-1.25A11.58 11.58.0 0159.19 41c-3.11.24-5 1.67-5.15 3.92a.75.75.0 00.7.8h.05a.75.75.0 00.75-.7c.14-2.02 2.46-2.45 3.77-2.56zM34.64 37.25a.75.75.0 101.16-.95l-3.19-3.92a.75.75.0 10-1.16.95zM38 35.08a.75.75.0 00.7.48.75.75.0 00.7-1l-1.41-3.68a.75.75.0 10-1.4.54zM42 35.19a.75.75.0 00.75-.69l.25-3.18a.75.75.0 00-.69-.81.74.74.0 00-.81.69l-.25 3.19a.75.75.0 00.75.8z"/><path class="cls-1" d="M95.31 61c-3.9-1.24-13.08-1.13-20.54-.79 5-6.31 5-12.41 4.11-15.28-.68-2.15-1.73-7.57-.39-9.68a1.56 1.56.0 011.18-.77c1.76-.23 2.08-2.06 2.33-3.52a8.38 8.38.0 01.35-1.54 4.25 4.25.0 011.22-1.37 10.59 10.59.0 003.18-4.23c1.59-3.91-.54-5.84-.63-5.92a.73.73.0 00-.28-.13h-.14a6.16 6.16.0 00-4.81.73c-.68.33-1.52.73-2.76 1.25a6.88 6.88.0 01-8-1.32c-4.5-4.32-7.67-5.57-20.08-5.57s-15.54 1.26-20 5.57a6.88 6.88.0 01-8 1.32 51.69 51.69.0 01-2.76-1.25 6.16 6.16.0 00-4.81-.73h-.14a.73.73.0 00-.28.13c-.09.08-2.22 2-.63 5.92a10.59 10.59.0 003.18 4.23 4.26 4.26.0 011.22 1.37A8.4 8.4.0 0118 31c.25 1.47.56 3.29 2.33 3.52a1.56 1.56.0 011.18.77c1.34 2.11.29 7.53-.39 9.68-.91 2.87-.87 9 4.11 15.28-7.46-.34-16.64-.45-20.54.79a.75.75.0 00.46 1.43c4.09-1.3 15-1 21.18-.66h.25l.65.69c-7.68.11-12.89.64-15.5 1.58a.75.75.0 10.51 1.41c2.58-.93 8.3-1.45 16.56-1.51.35.3.71.59 1.07.88-6.47.36-17 1.21-21 3a.75.75.0 00.6 1.37c4.17-1.83 16.18-2.64 22.22-2.95l1 .72.1.07c-6.29.61-10.59 1.4-12.79 2.36a.75.75.0 00.6 1.37c2.07-.91 6.45-1.69 12.72-2.28A19.94 19.94.0 0034 74c1.63 4.32 3.86 5.38 6.46 5.6a5.67 5.67.0 001.52 1.81 15.18 15.18.0 00-3.39 4.47.75.75.0 001.4.54c.27-.7 1.08-2 3.29-4.19a10.86 10.86.0 002 .78 11.32 11.32.0 00-.92 3.43.75.75.0 00.71.79.75.75.0 00.75-.71 10.34 10.34.0 01.91-3.17 19.89 19.89.0 006.54.0 10.5 10.5.0 01.91 3.17.75.75.0 00.75.71.75.75.0 00.71-.79A11.32 11.32.0 0054.75 83a10.86 10.86.0 002-.78c2.21 2.19 3 3.49 3.29 4.19a.75.75.0 001.4-.54 15.18 15.18.0 00-3.39-4.47 5.67 5.67.0 001.52-1.81c2.6-.22 4.83-1.27 6.45-5.59a19.92 19.92.0 00.65-5.45c6.27.59 10.66 1.37 12.72 2.28a.75.75.0 10.6-1.37c-2.22-1-6.6-1.77-13-2.38l.8-.56.31-.22c6 .3 18.2 1.11 22.42 3a.75.75.0 00.6-1.37c-4.06-1.78-14.61-2.62-21.07-3q.57-.43 1.11-.88c8.28.05 14 .57 16.59 1.51a.75.75.0 00.51-1.41c-2.6-.94-7.81-1.47-15.5-1.58l.65-.69h.25c6.15-.31 17.09-.64 21.18.66a.75.75.0 00.47-1.54zm-42 18.91a.75.75.0 10-1.3.75c.16.27.39.7.64 1.2a18.15 18.15.0 01-5.22.0c.35-.71.63-1.19.64-1.2a.75.75.0 10-1.3-.75c0 .06-.42.73-.87 1.66a7 7 0 01-3.58-2h2.43A6 6 0 0050 76.43a6 6 0 005.29 3.13h2.43a7 7 0 01-3.58 2c-.45-.9-.83-1.56-.87-1.63zm17.1-17.26-.08.06c-.84.7-1.77 1.38-2.68 2h-.78c.13-1.71.45-3.25 1.07-3.71A.75.75.0 0067 59.8c-1 .83-1.44 2.64-1.63 4.83h-.61a.73.73.0 00-.77.73.75.75.0 00.73.77h.56v.74h-.18a.76.76.0 00-.81.68.75.75.0 00.68.81h.21a20 20 0 01-.56 5.05c-1.41 3.75-3.1 4.54-5.55 4.66H55.29a4.54 4.54.0 01-4.53-4.46 5.51 5.51.0 011.16-.84c1-.64 2.47-1.52 1.93-2.79-.19-.44-.06-.65 1.66-1.82l.63-.43a2.48 2.48.0 001.3-2 2.08 2.08.0 00-.95-1.6.74.74.0 00-1 .22.76.76.0 00.21 1c.08.06.26.23.27.37s-.17.41-.66.75l-.62.43c-1.63 1.1-2.91 2-2.2 3.57-.08.25-.89.74-1.33 1a10.22 10.22.0 00-1.13.77 10.22 10.22.0 00-1.13-.77 7.46 7.46.0 01-1.33-.93c.71-1.67-.58-2.54-2.2-3.65l-.62-.43c-.48-.34-.66-.61-.66-.75s.18-.31.26-.37a.75.75.0 00-.81-1.26 2.08 2.08.0 00-.95 1.6 2.48 2.48.0 001.3 2l.63.43c1.73 1.17 1.85 1.38 1.66 1.82-.54 1.28.89 2.15 1.93 2.79a10.47 10.47.0 011.16.77 4.54 4.54.0 01-4.54 4.52h-1.56c-3.72.09-6 .14-7.78-4.66a20.07 20.07.0 01-.56-5.05h.21a.75.75.0 10-.13-1.5h-.14v-.74h.56a.75.75.0 000-1.5h-.61c-.19-2.19-.58-4-1.63-4.83A.75.75.0 1032.06 61c.62.49.91 2 1.06 3.71h-.95c-.85-.64-1.7-1.31-2.48-2a.73.73.0 00-.15-.14c-.26-.23-.52-.46-.76-.69l2.33.15h.06a.75.75.0 00.06-1.5s-1.57-.12-4-.25c-5.44-6.19-5.58-12.2-4.72-14.92.0-.08 2.33-7.62.23-10.93A3.07 3.07.0 0020.54 33c-.62-.08-.82-1-1-2.29a9.51 9.51.0 00-.44-1.84 5.37 5.37.0 00-1.63-1.95 9 9 0 01-2.78-3.67c-1-2.36-.23-3.66.1-4.08a3.19 3.19.0 012.07.54c.07.06 7.52 5.52 10.79 5.52H28c-3 2.15-4.76 4.9-4.76 7.59a.75.75.0 001.5.0c0-2.81 2.6-5.89 6.63-7.86a13.71 13.71.0 004.48-1.49.75.75.0 10-.73-1.31 15.48 15.48.0 01-7.56 1.58c-1.25.0-3.64-1.21-5.86-2.55a8.3 8.3.0 009.3-1.73c4-3.82 6.49-5.15 19-5.15s15 1.34 19 5.15a8.18 8.18.0 005.77 2.45 9.77 9.77.0 003.44-.68c-2.21 1.33-4.6 2.53-5.84 2.53a15.48 15.48.0 01-7.56-1.58.75.75.0 00-.73 1.31A13.72 13.72.0 0068.59 25c4 2 6.63 5 6.63 7.86a.75.75.0 001.5.0c0-2.7-1.77-5.45-4.76-7.59h.44c3.27.0 10.72-5.46 10.79-5.52a3.19 3.19.0 012.06-.54c.33.43 1.05 1.73.1 4.08a9 9 0 01-2.78 3.67 5.37 5.37.0 00-1.63 1.95 9.49 9.49.0 00-.44 1.84c-.23 1.33-.42 2.21-1 2.29a3.07 3.07.0 00-2.25 1.45c-2.11 3.31.2 10.86.23 10.93.87 2.73.72 8.74-4.72 14.92-2.39.13-4 .25-4 .25a.75.75.0 00.06 1.5h.06l2.33-.15c-.21.23-.52.47-.8.71z"/><path class="cls-1" d="M64.77 37.53a.75.75.0 00.58-.28l3.19-3.92a.75.75.0 10-1.16-.95l-3.19 3.92a.75.75.0 00.58 1.22zm-3.7-2.02a.74.74.0 00.27.0.75.75.0 00.7-.48l1.41-3.68a.75.75.0 10-1.4-.54l-1.41 3.68a.75.75.0 00.43 1.02zM58 35.2a.75.75.0 00.69-.81l-.25-3.19a.75.75.0 00-1.5.12l.25 3.19a.75.75.0 00.81.69z"/><circle class="cls-1" cx="38.13" cy="69.84" r="1.05"/><circle class="cls-1" cx="38.48" cy="73.41" r="1.05"/><circle class="cls-1" cx="41.22" cy="75.76" r="1.05"/><circle class="cls-1" cx="42.14" cy="72.11" r="1.05"/><circle class="cls-1" cx="45.06" cy="73.95" r="1.05"/><circle class="cls-1" cx="61.87" cy="69.84" r="1.05"/><circle class="cls-1" cx="61.52" cy="73.41" r="1.05"/><circle class="cls-1" cx="58.78" cy="75.76" r="1.05"/><circle class="cls-1" cx="57.86" cy="72.11" r="1.05"/><circle class="cls-1" cx="54.94" cy="73.95" r="1.05"/><path class="cls-1" d="M53.56 52.5a.75.75.0 00-.81.69A9.21 9.21.0 0150 58.58a9.16 9.16.0 01-2.73-5.4.75.75.0 00-1.5.12 11 11 0 003.73 6.86.75.75.0 00.47.17.75.75.0 00.47-.17 11 11 0 003.73-6.86.75.75.0 00-.61-.8zM40.37 55.2a.75.75.0 00-1 .27c-.2.35-.46.72-.73 1.11-1.34 1.94-3.36 4.88-.51 8a.75.75.0 001.1-1c-1.89-2.05-.93-3.82.64-6.1.29-.43.57-.83.79-1.21a.75.75.0 00-.29-1.07zM60.69 55.47a.75.75.0 10-1.3.75c.22.38.5.78.79 1.21 1.57 2.28 2.53 4.05.64 6.1a.75.75.0 101.1 1c2.85-3.09.83-6-.51-8-.25-.34-.51-.71-.72-1.06zM41.89 65a.75.75.0 00-1.43-.46 4.13 4.13.0 001.91 4.82.75.75.0 00.75-1.3A2.62 2.62.0 0141.89 65zm15.73 4.33a4.13 4.13.0 001.91-4.82.75.75.0 00-1.43.46A2.62 2.62.0 0156.87 68a.75.75.0 00.75 1.3zM52.88 65.15a3.83 3.83.0 01-5.77.0.75.75.0 00-1.16 1 5.32 5.32.0 008.08.0.75.75.0 00-1.16-1zM30.51 50.52a.75.75.0 10-.72 1.31c2.63 1.45 3.77 3.59 3.77 4.36a.75.75.0 001.5.0c0-1.55-1.7-4.1-4.55-5.67zM70.59 50.82a.75.75.0 00-1-.3C66.72 52.09 65 54.64 65 56.2a.75.75.0 001.5.0c0-.77 1.14-2.92 3.77-4.36a.75.75.0 00.32-1.02z"/></g><g id="54c8ca41-f910-4170-8f82-6d26474b6f31" fill="#000" transform="matrix(0.9559017435520097,0,0,0.9559017435520097,130.7275691282621,56.520518426468094)"><path d="M7.74 13.02l-1.16-2.9H2.16l-1.15 2.9H.27L3.96 3.78h.83l3.69 9.24H7.74zM2.42 9.48H6.33L4.72 5.45l-.34-.98H4.37l-.34.95L2.42 9.48zm18.1-.98h3.8v4.52H23.76L23.73 11.41Q23.35 12.25 22.55 12.71 21.74 13.16 20.55 13.16q-1.26.0-2.2-.58Q17.4 12 16.89 10.92 16.38 9.84 16.38 8.4 16.38 6.96 16.91 5.88q.52-1.08 1.47-1.66Q19.33 3.64 20.59 3.64q1.42.0 2.31.56Q23.8 4.76 24.25 5.91L23.6 6.24q-.32-.96-1.08-1.46Q21.76 4.28 20.59 4.28q-1.03.0-1.82.5Q17.99 5.28 17.56 6.21 17.12 7.14 17.12 8.4 17.12 10.32 18.04 11.42 18.96 12.52 20.58 12.52q1.01.0 1.71-.4Q22.99 11.72 23.32 11.07q.34-.65.34-1.4V9.16H20.52V8.5zM34.5 12.38h5.83V13.02H33.8V3.78h6.31v.64H34.5V7.99h4.43v.66H34.5v3.73zm21.96-8.6v9.24H55.59L50.69 5.77l-.68-1.23H49.99L50.04 5.7v7.32h-.68V3.78H50.25l4.88 7.24L55.83 12.26 55.8 11.1V3.78H56.46zm17.22 6.9Q73.29 11.86 72.32 12.51 71.34 13.16 69.99 13.16 68.73 13.16 67.77 12.58 66.82 12 66.3 10.92 65.79 9.84 65.79 8.4 65.79 6.96 66.3 5.88 66.82 4.8 67.77 4.22 68.73 3.64 69.97 3.64q2.77.0 3.59 2.28L72.87 6.24Q72.55 5.26 71.84 4.77 71.13 4.28 70.01 4.28 68.98 4.28 68.19 4.78 67.4 5.28 66.96 6.21 66.53 7.14 66.53 8.4 66.53 9.66 66.96 10.59 67.38 11.52 68.16 12.02 68.94 12.52 69.99 12.52 71.11 12.52 71.89 11.97 72.67 11.42 72.98 10.42L73.68 10.68zM83.44 12.38h5.84V13.02H82.74V3.78h6.31v.64H83.44V7.99h4.44v.66H83.44v3.73zm29.16-8.6Q114.81 3.78 116.01 4.95 117.21 6.12 117.21 8.33 117.21 10.6 116.01 11.81 114.81 13.02 112.6 13.02h-2.91V3.78h2.91zM112.66 12.38Q114.51 12.38 115.49 11.33 116.48 10.29 116.48 8.33 116.48 6.45 115.49 5.44 114.51 4.42 112.66 4.42h-2.27v7.96h2.27zm14.59.0H133.08V13.02H126.55V3.78H132.86v.64H127.25V7.99H131.68v.66H127.25v3.73zm30.82-5.84L156.21 13.02H155.34l-2.88-9.24H153.22l2.56 8.67L158.2 3.78H159.01L161.43 12.46l2.59-8.68H164.74L161.85 13.02H160.99l-1.87-6.48L158.61 4.54H158.59L158.07 6.54zm16.24 5.84h5.84V13.02H173.61V3.78H179.93v.64h-5.62V7.99h4.44v.66h-4.44v3.73zM189.18 13.02V3.78H192.44Q193.96 3.78 194.71 4.41 195.45 5.04 195.45 6.23 195.45 7.04 195.01 7.6 194.57 8.16 193.76 8.33V8.34Q194.66 8.48 195.18 9.07 195.71 9.66 195.71 10.53 195.71 11.72 194.86 12.37 194.01 13.02 192.44 13.02H189.18zM189.88 8.04H192.46q2.25.0 2.25-1.81.0-1.81-2.25-1.81H189.88V8.04zm0 4.34H192.58Q193.76 12.38 194.36 11.9 194.96 11.42 194.96 10.53 194.96 9.62 194.36 9.15 193.76 8.68 192.58 8.68H189.88v3.7zm29.44-8.6q2.22.0 3.41 1.17Q223.93 6.12 223.93 8.33 223.93 10.6 222.73 11.81q-1.19 1.21-3.41 1.21h-2.91V3.78h2.91zM219.38 12.38Q221.23 12.38 222.22 11.33 223.2 10.29 223.2 8.33 223.2 6.45 222.22 5.44 221.23 4.42 219.38 4.42H217.11v7.96H219.38zm14.59.0h5.84V13.02H233.27V3.78h6.31v.64H233.97V7.99h4.44v.66h-4.44v3.73zm17.72-8.74Q254.3 3.64 255.18 5.68L254.58 6.17Q254.23 5.18 253.53 4.73 252.84 4.28 251.71 4.28 250.89 4.28 250.29 4.54 249.69 4.79 249.38 5.22 249.06 5.66 249.06 6.2 249.06 6.73 249.33 7.08 249.59 7.43 250.23 7.68 250.87 7.92 251.99 8.12 253.79 8.43 254.55 9.02q.75.58.75 1.62Q255.3 11.38 254.87 11.96 254.44 12.53 253.65 12.84 252.85 13.16 251.83 13.16 250.38 13.16 249.38 12.58 248.37 12 248.01 10.95L248.63 10.47Q248.91 11.47 249.75 11.99 250.6 12.52 251.85 12.52 253.05 12.52 253.81 12.03 254.58 11.54 254.58 10.68 254.58 9.94 253.95 9.51 253.33 9.07 251.79 8.81 250.49 8.58 249.73 8.26 248.98 7.94 248.65 7.46 248.32 6.99 248.32 6.27 248.32 5.56 248.73 4.96 249.14 4.35 249.91 4 250.67 3.64 251.69 3.64zm13.51.14v9.24H264.5V3.78H265.2zM278.67 8.5H282.46v4.52H281.9L281.88 11.41Q281.5 12.25 280.69 12.71 279.89 13.16 278.7 13.16 277.44 13.16 276.49 12.58 275.55 12 275.04 10.92 274.53 9.84 274.53 8.4 274.53 6.96 275.05 5.88 275.58 4.8 276.53 4.22 277.48 3.64 278.74 3.64 280.15 3.64 281.05 4.2 281.95 4.76 282.39 5.91L281.75 6.24Q281.43 5.28 280.67 4.78 279.9 4.28 278.74 4.28 277.7 4.28 276.92 4.78 276.14 5.28 275.7 6.21 275.27 7.14 275.27 8.4 275.27 10.32 276.19 11.42 277.1 12.52 278.73 12.52q1 0 1.69999999999999-.4Q281.13 11.72 281.47 11.07 281.81 10.42 281.81 9.67V9.16H278.67V8.5zm20.37-4.72v9.24H298.17L293.27 5.77 292.59 4.54H292.57L292.61 5.7v7.32H291.94V3.78H292.82L297.71 11.02 298.41 12.26 298.38 11.1V3.78H299.04z"/></g></svg>